<svg width="53" height="52" viewBox="0 0 53 52" fill="none" xmlns="http://www.w3.org/2000/svg">
<circle cx="26.3836" cy="25.8836" r="25.8836" fill="#E8FFE8"/>
<path d="M35.443 14.236H30.802C30.4588 14.236 30.1297 14.3724 29.8871 14.6152L26.3837 18.1185L22.8804 14.6152C22.6377 14.3724 22.3086 14.236 21.9654 14.236H17.3244C16.638 14.236 15.9796 14.5087 15.4942 14.9941C15.0088 15.4795 14.7361 16.1378 14.7361 16.8243V34.9429C14.7361 35.6293 15.0088 36.2877 15.4942 36.7731C15.9796 37.2585 16.638 37.5312 17.3244 37.5312H35.443C36.1295 37.5312 36.7878 37.2585 37.2732 36.7731C37.7586 36.2877 38.0313 35.6293 38.0313 34.9429V16.8243C38.0313 16.1378 37.7586 15.4795 37.2732 14.9941C36.7878 14.5087 36.1295 14.236 35.443 14.236ZM32.4754 24.2102L26.0045 30.6811C25.7618 30.9237 25.4327 31.06 25.0895 31.06C24.7464 31.06 24.4172 30.9237 24.1745 30.6811L21.5862 28.0928C21.3504 27.8487 21.22 27.5218 21.2229 27.1824C21.2259 26.8431 21.362 26.5185 21.6019 26.2786C21.8419 26.0386 22.1665 25.9025 22.5058 25.8995C22.8452 25.8966 23.1721 26.027 23.4162 26.2628L25.0895 27.9362L30.6455 22.3802C30.8895 22.1445 31.2164 22.0141 31.5558 22.017C31.8951 22.0199 32.2197 22.1561 32.4597 22.396C32.6996 22.636 32.8357 22.9606 32.8387 23.2999C32.8416 23.6392 32.7112 23.9661 32.4754 24.2102Z" fill="#039B00"/>
</svg>
