<svg width="53" height="52" viewBox="0 0 53 52" fill="none" xmlns="http://www.w3.org/2000/svg">
<circle cx="26.3836" cy="25.8836" r="25.8836" fill="#E8FFE8"/>
<path d="M33.9922 22.9071C31.2757 21.0952 30.2663 19.4555 30.2663 16.8762V15.5303H31.5604C31.9037 15.5303 32.2329 15.3939 32.4756 15.1512C32.7183 14.9085 32.8546 14.5793 32.8546 14.2361C32.8546 13.8928 32.7183 13.5637 32.4756 13.321C32.2329 13.0782 31.9037 12.9419 31.5604 12.9419H21.207C20.8638 12.9419 20.5346 13.0782 20.2919 13.321C20.0492 13.5637 19.9128 13.8928 19.9128 14.2361C19.9128 14.5793 20.0492 14.9085 20.2919 15.1512C20.5346 15.3939 20.8638 15.5303 21.207 15.5303H22.5012V16.8762C22.5012 19.4555 21.4917 21.0952 18.7752 22.9071C17.585 23.6247 16.5925 24.6277 15.8872 25.8253C15.182 27.0229 14.7864 28.3774 14.7361 29.7662C14.7361 34.7605 19.9607 38.8255 26.3837 38.8255C32.8067 38.8255 38.0313 34.7605 38.0313 29.7662C37.9811 28.3774 37.5854 27.0229 36.8802 25.8253C36.175 24.6277 35.1824 23.6247 33.9922 22.9071ZM27.6779 32.3546C27.6779 32.0986 27.7538 31.8484 27.896 31.6356C28.0382 31.4228 28.2403 31.2569 28.4768 31.1589C28.7133 31.061 28.9735 31.0354 29.2246 31.0853C29.4756 31.1352 29.7062 31.2585 29.8872 31.4395C30.0682 31.6205 30.1915 31.8511 30.2414 32.1021C30.2913 32.3532 30.2657 32.6134 30.1677 32.8499C30.0698 33.0864 29.9039 33.2885 29.6911 33.4307C29.4783 33.5729 29.228 33.6488 28.9721 33.6488C28.6288 33.6488 28.2997 33.5124 28.057 33.2697C27.8142 33.027 27.6779 32.6978 27.6779 32.3546ZM20.2131 25.0541C22.6306 23.4442 25.0895 21.2143 25.0895 16.8762V15.5303H27.6779V16.8762C27.6779 21.2143 30.1368 23.4442 32.5544 25.0528C33.4827 25.6538 34.254 26.468 34.8037 27.4277C31.5295 26.9435 28.1859 27.3029 25.0895 28.4721C22.6457 29.39 19.9599 29.4357 17.4862 28.6015C17.933 27.1265 18.9026 25.8652 20.2131 25.0541Z" fill="#039B00"/>
<path d="M26.3838 24.5895C27.0985 24.5895 27.678 24.01 27.678 23.2953C27.678 22.5805 27.0985 22.0011 26.3838 22.0011C25.669 22.0011 25.0896 22.5805 25.0896 23.2953C25.0896 24.01 25.669 24.5895 26.3838 24.5895Z" fill="#039B00"/>
</svg>
