<svg width="53" height="52" viewBox="0 0 53 52" fill="none" xmlns="http://www.w3.org/2000/svg">
<circle cx="26.3836" cy="25.8836" r="25.8836" fill="#E8FFE8"/>
<path d="M26.3837 38.8255C28.1755 38.8255 29.927 38.2942 31.4168 37.2988C32.9066 36.3033 34.0677 34.8884 34.7534 33.2331C35.4391 31.5777 35.6185 29.7562 35.2689 27.9989C34.9193 26.2415 34.0565 24.6273 32.7896 23.3604C31.5226 22.0934 29.9084 21.2306 28.1511 20.8811C26.3938 20.5315 24.5722 20.7109 22.9169 21.3966C21.2615 22.0823 19.8466 23.2434 18.8512 24.7332C17.8558 26.223 17.3244 27.9745 17.3244 29.7662C17.3244 32.1689 18.2789 34.4732 19.9778 36.1721C21.6768 37.8711 23.981 38.8255 26.3837 38.8255ZM25.0895 28.4721L26.3837 25.8837L27.6779 28.4721L30.2662 28.85L28.1088 30.6295L28.7831 33.6488L26.3837 31.9236L23.9843 33.6488L24.6586 30.6295L22.5012 28.85L25.0895 28.4721ZM31.5604 12.9419H39.3255L35.2178 22.1966C33.5658 20.264 31.3269 18.925 28.8426 18.3839L31.5604 12.9419ZM21.207 12.9419L23.9248 18.3839C21.4406 18.925 19.2016 20.264 17.5496 22.1966L13.4419 12.9419H21.207Z" fill="#039B00"/>
</svg>
