<svg width="53" height="52" viewBox="0 0 53 52" fill="none" xmlns="http://www.w3.org/2000/svg">
<circle cx="26.3836" cy="25.8836" r="25.8836" fill="#E8FFE8"/>
<path d="M26.3837 12.9418C23.8241 12.9418 21.3219 13.7008 19.1936 15.1229C17.0654 16.5449 15.4066 18.5662 14.427 20.931C13.4475 23.2958 13.1912 25.8979 13.6906 28.4084C14.1899 30.9189 15.4225 33.2249 17.2325 35.0348C19.0424 36.8448 21.3484 38.0774 23.8589 38.5767C26.3694 39.0761 28.9715 38.8198 31.3363 37.8403C33.7011 36.8607 35.7224 35.2019 37.1444 33.0737C38.5665 30.9454 39.3255 28.4432 39.3255 25.8836C39.3255 24.184 38.9908 22.5011 38.3404 20.931C37.69 19.3608 36.7367 17.9341 35.535 16.7323C34.3332 15.5306 32.9065 14.5773 31.3363 13.9269C29.7662 13.2765 28.0833 12.9418 26.3837 12.9418ZM28.0273 27.8249H25.0895V31.0603H23.1483V20.7069H28.0273C28.4933 20.7075 28.9545 20.8002 29.3846 20.9797C29.8146 21.1591 30.205 21.4217 30.5333 21.7523C30.8616 22.083 31.1213 22.4753 31.2976 22.9066C31.4738 23.338 31.5632 23.7999 31.5604 24.2659C31.5482 25.2015 31.1728 26.0958 30.5136 26.7598C29.8544 27.4239 28.9629 27.8058 28.0273 27.8249ZM29.6192 24.2659C29.6257 24.6882 29.4643 25.0958 29.1704 25.3992C28.8766 25.7025 28.4742 25.8768 28.0519 25.8836H25.0895V22.6481H28.0519C28.4742 22.6549 28.8766 22.8292 29.1704 23.1325C29.4643 23.4359 29.6257 23.8435 29.6192 24.2659Z" fill="#039B00"/>
</svg>
